<?xml version="1.0" encoding="UTF-8" standalone="no"?>
<svg width="14px" height="9px" viewBox="0 0 14 9" version="1.1" xmlns="http://www.w3.org/2000/svg" xmlns:xlink="http://www.w3.org/1999/xlink">
    <!-- Generator: Sketch 39.1 (31720) - http://www.bohemiancoding.com/sketch -->
    <title>check</title>
    <desc>Created with Sketch.</desc>
    <defs></defs>
    <g id="Page-1" stroke="none" stroke-width="1" fill="none" fill-rule="evenodd">
        <g id="check" fill="#FFFFFF">
            <path d="M5.1,8.7 C4.4,8.7 3.8,8.4 3.3,8 L0.6,5.3 C0.4,5.1 0.4,4.8 0.6,4.6 C0.8,4.4 1.1,4.4 1.3,4.6 L4,7.3 C4.3,7.6 4.7,7.7 5.1,7.7 L5.1,7.7 C5.5,7.7 5.9,7.5 6.2,7.3 L12.6,0.7 C12.8,0.5 13.1,0.5 13.3,0.7 C13.5,0.9 13.5,1.2 13.3,1.4 L6.9,8 C6.5,8.4 5.8,8.7 5.1,8.7 L5.1,8.7 L5.1,8.7 Z" id="Shape"></path>
        </g>
    </g>
</svg>