<?xml version="1.0" encoding="UTF-8" standalone="no"?>
<svg width="18px" height="18px" viewBox="0 0 18 18" version="1.1" xmlns="http://www.w3.org/2000/svg" xmlns:xlink="http://www.w3.org/1999/xlink">
    <!-- Generator: Sketch 39.1 (31720) - http://www.bohemiancoding.com/sketch -->
    <title>Group</title>
    <desc>Created with Sketch.</desc>
    <defs></defs>
    <g id="Page-1" stroke="none" stroke-width="1" fill="none" fill-rule="evenodd">
        <g id="pin" fill="#231815">
            <g id="Group">
                <path d="M8.9,17.2 C8.8,17.2 8.6,17.1 8.5,17.1 L0.9,9.5 C0.7,9.3 0.7,9 0.9,8.8 C2.1,7.6 4,7.3 5.5,8 L9.5,4 L9.5,4 C9.2,3.7 9,3.2 9,2.8 C9,2.4 9.2,1.9 9.5,1.6 L9.7,1.4 C10.4,0.7 11.5,0.7 12.1,1.4 L16.7,6 C17,6.3 17.2,6.8 17.2,7.2 C17.2,7.6 17,8 16.7,8.3 L16.5,8.5 C15.8,9.2 14.7,9.2 14.1,8.5 L14.1,8.5 L10.1,12.5 C10.8,14 10.5,15.9 9.3,17.1 C9.1,17.2 9,17.2 8.9,17.2 L8.9,17.2 Z M2,9.2 L8.8,16 C9.5,15 9.6,13.7 8.9,12.7 C8.8,12.5 8.8,12.3 9,12.1 L13.7,7.4 C13.9,7.2 14.2,7.2 14.4,7.4 L14.8,7.8 C15.1,8.1 15.6,8.1 15.8,7.8 L16,7.6 C16.1,7.5 16.2,7.3 16.2,7.1 C16.2,6.9 16.1,6.7 16,6.6 L11.4,2 C11.1,1.7 10.6,1.7 10.4,2 L10.2,2.2 C10.1,2.3 10,2.5 10,2.7 C10,2.9 10.1,3.1 10.2,3.2 L10.6,3.6 C10.8,3.8 10.8,4.1 10.6,4.3 L6,8.9 C5.8,9.1 5.6,9.1 5.4,9 C4.3,8.4 3,8.5 2,9.2 L2,9.2 Z" id="Shape"></path>
                <path d="M5.4,13.3 L2.1,16.6 C2,16.7 1.9,16.7 1.7,16.7 C1.5,16.7 1.4,16.7 1.3,16.6 C1.1,16.4 1.1,16.1 1.3,15.9 L4.6,12.6 L5.4,13.3 L5.4,13.3 Z" id="Shape"></path>
            </g>
        </g>
    </g>
</svg>